<?xml version="1.0" encoding="UTF-8"?>
<!-- Generator: Adobe Illustrator 16.0.0, SVG Export Plug-In . SVG Version: 6.00 Build 0)  -->
<!DOCTYPE svg PUBLIC "-//W3C//DTD SVG 1.1//EN" "http://www.w3.org/Graphics/SVG/1.1/DTD/svg11.dtd">
<svg version="1.1" id="Layer_1" xmlns="http://www.w3.org/2000/svg" xmlns:xlink="http://www.w3.org/1999/xlink" x="0px" y="0px"
	 width="1024px" height="768px" viewBox="0 0 1024 768" style="enable-background:new 0 0 1024 768;" xml:space="preserve">
<g>
	<path style="fill:#FFFFFF;" d="M47.151,540.6c0,0,45.597,45.188,103.105,26.286c57.509-18.893,67.778-48.881,148.702-59.561
		c59.174-4.527,117.074,8.624,185.674-60.795c58.741-67.777,33.688-134.324,29.988-146.237
		c-3.699-11.912-57.102-154.866-265.777-99.409C56.188,264.555-1.322,420.65,25.791,507.735
		C32.679,528.376,47.151,540.6,47.151,540.6z"/>
	<path style="fill:#FFFFFF;" d="M387.384,556.176c0,0,10.954,32.182,52.034,21.5c37.385-16.568,33.001-44.367,15.338-58.886
		c-21.635-14.238-45.601-4.519-53.542,2.192C393.271,527.693,382.043,539.194,387.384,556.176z"/>
	<path style="fill:#ffa713;" d="M338.36,370.203c-1.286-0.936-2.49-0.286-3.683,0.068c-8.904,2.667-15.813,8.126-21.401,15.4
		c-2.34,3.042-4.321,6.315-6.159,9.687c-4.722,8.653-8.828,17.604-13.009,26.521c-3.176,6.771-6.528,13.453-9.717,20.217
		c-1.003,2.126-2.179,2.859-4.89,1.835c-1.552-0.588-2.935-1.551-3.978-2.832c-1.638-2.013-3.677-3.499-5.734-5.021
		c-3.293-2.435-3.363-3.066-1.729-6.854c12.227-28.295,25.329-56.186,38.749-83.936c6.272-12.968,12.23-26.091,19.023-38.804
		c1.55-2.899,3.119-5.785,5.241-8.317c1.249-1.489,2.285-1.731,3.612-0.202c1.723,1.979,3.612,2.248,5.9,1.667
		c0.175-0.045,0.356-0.073,0.538-0.094c5.622-0.633,6.544,0.481,4.696,6.064c-0.914,2.762-1.989,5.495-3.269,8.107
		c-5.122,10.485-10.336,20.927-15.548,31.372c-2.521,5.059-5.134,10.075-7.663,15.131c-0.472,0.94-1.205,1.841-0.957,3.103
		c1.021,0.713,1.617-0.249,2.267-0.656c4.014-2.52,7.938-5.19,12.005-7.624c3.501-2.097,7.318-3.187,11.481-2.976
		c5.03,0.253,9.065,2.5,12.501,5.996c1.458,1.481,2.229,3.308,2.32,5.408c0.119,2.75,0.086,5.484-0.919,8.096
		c-1.309,3.4-2.607,6.807-4.014,10.168c-6.057,14.463-12.11,28.929-18.244,43.358c-2.281,5.369-4.739,10.664-7.195,15.956
		c-1.141,2.458-2.367,2.905-4.758,1.979c-0.677-0.265-1.334-0.607-1.94-1.007c-2.588-1.697-5.157-3.428-7.728-5.155
		c-0.453-0.306-0.904-0.624-1.307-0.992c-1.979-1.831-2.329-3.151-1.229-5.819c2.643-6.402,5.379-12.77,8.07-19.152
		c5.031-11.938,11.013-23.433,16.46-35.178C336.997,373.922,338.129,372.23,338.36,370.203z"/>
	<path style="fill:#ffa713;" d="M108.29,415.002c1.812-0.145,2.215-1.313,2.826-2.139c6.823-9.247,13.465-18.631,20.447-27.758
		c5.873-7.677,12.129-15.063,18.218-22.576c1.035-1.276,2.144-2.497,3.101-3.829c1.502-2.083,3.474-3.17,6.036-3.164
		c1.823,0.003,3.647,0.005,5.47,0.059c1.111,0.034,2.18,0.279,2.995,1.126c1.537,1.6,3.434,2.686,5.317,3.806
		c1.104,0.659,1.324,1.785,0.699,2.821c-0.377,0.624-0.824,1.205-1.266,1.785c-13.851,18.121-27.286,36.578-41.665,54.271
		c-17.724,21.813-35.083,43.903-52.631,65.851c-0.455,0.568-0.873,1.172-1.355,1.718c-1.473,1.65-3.32,1.471-4.407-0.521
		c-0.607-1.112-1.045-2.328-1.449-3.532c-0.612-1.832-1.571-3.224-3.56-3.805c-0.845-0.249-1.634-0.817-2.341-1.377
		c-1.435-1.137-1.754-2.736-0.845-4.369c0.708-1.272,1.552-2.469,2.371-3.677c7.472-11.027,14.903-22.079,22.458-33.047
		c1.943-2.823,3.038-5.428,2.097-9.077c-0.99-3.843-1.129-7.941-1.339-11.942c-0.896-16.95-1.438-33.911-0.975-50.889
		c0.079-2.912,0.307-5.83,0.585-8.735c0.219-2.294,1.763-3.057,3.854-1.863c1.248,0.712,2.396,1.651,3.453,2.635
		c0.93,0.861,1.741,1.875,2.478,2.912c0.993,1.399,2.332,1.641,3.859,1.379c0.716-0.124,1.4-0.411,2.112-0.561
		c3.739-0.791,5.461,0.586,5.4,4.532c-0.087,5.656-0.279,11.313-0.493,16.965c-0.246,6.563-0.563,13.123-0.851,19.687
		C108.696,406.05,108.497,410.42,108.29,415.002z"/>
	<path style="fill:#ffa713;" d="M255.719,408.309c0.445,2.95,0.774,5.674,3.344,7.41c1.397,0.945,1.374,2.442,0.777,3.94
		c-1.65,4.145-4.171,7.71-7.471,10.658c-8.819,7.884-19.232,12.319-30.866,14.104c-4.553,0.698-9.068,0.632-13.603-0.104
		c-9.923-1.608-16.256-8.375-17.824-18.759c-0.906-5.998-0.308-12.039,1.453-17.863c6.342-20.983,18.58-37.342,37.974-48.028
		c8.146-4.489,16.943-6.778,26.156-7.038c16.458-0.461,24.182,15.119,19.256,27.949c-1.608,4.191-4.283,7.605-7.544,10.593
		c-2.971,2.722-6.306,4.938-9.829,6.892c-13.548,7.508-28.032,12.237-43.372,14.164c-4.417,0.551-3.983,1.385-4.779,4.582
		c-0.088,0.354-0.228,0.698-0.295,1.053c-0.783,4.256,1.132,7.533,5.283,8.904c2.455,0.813,5.015,1.098,7.566,0.765
		c12.996-1.689,24.159-6.712,31.943-17.783c0.209-0.295,0.45-0.574,0.703-0.834C254.709,408.793,254.896,408.741,255.719,408.309z"
		/>
	<path style="fill:#ffa713;" d="M350.217,416.76c0.077-6.265,1.313-12.338,3.59-18.137c8.044-20.493,21.761-36.033,41.056-46.638
		c2.561-1.408,5.229-2.525,8.092-3.246c6.896-1.731,13.01-0.186,18.446,4.229c4.685,3.804,7.664,8.766,9.298,14.517
		c0.915,3.22,0.643,6.567,0.082,9.786c-3.328,19.103-11.299,36.092-23.722,50.964c-3.282,3.931-7.092,7.353-11.278,10.316
		c-3.756,2.662-7.801,4.756-12.33,5.692c-16.81,3.475-32.05-8.152-33.229-25.301C350.174,418.221,350.217,417.489,350.217,416.76z"
		/>
	<path style="fill:#ffa713;" d="M333.864,219.807c22.733,0.327,44.387,2.812,65.382,9.7c1.557,0.511,3.156,0.937,4.648,1.599
		c4.857,2.159,7.056,6.938,5.453,11.652c-1.706,5.016-6.551,7.614-11.802,5.963c-6.26-1.971-12.495-3.99-18.917-5.375
		c-9.636-2.076-19.369-3.316-29.203-4.096c-12.238-0.972-24.446-0.636-36.612,0.442c-24.45,2.162-48.22,7.482-71.095,16.531
		c-1.187,0.469-2.345,1.036-3.563,1.402c-4.939,1.486-10.115-0.845-11.706-5.387c-1.339-3.823-0.89-9.434,4.775-11.977
		c4.149-1.863,8.414-3.501,12.715-4.988c16.746-5.795,33.892-9.923,51.445-12.434C308.407,220.977,321.479,220.046,333.864,219.807z
		"/>
	<path style="fill:#ffa713;" d="M167.146,442.973c-4.125-0.851-8.125-2.067-11.8-4.167c-1.896-1.081-3.694-2.331-5.848-2.893
		c-2.105-0.549-2.562-1.827-1.809-3.741c2.4-6.099,4.487-12.359,7.366-18.229c13.877-28.299,27.7-56.629,43.723-83.811
		c1.387-2.353,2.92-4.619,4.345-6.953c1.014-1.663,2.47-2.014,4.234-1.577c0.528,0.132,1.081,0.25,1.555,0.501
		c1.807,0.946,3.485,0.602,5.211-0.274c1.449-0.742,2.913-1.483,4.654-1.388c1.331,0.071,2.038,0.942,1.476,2.136
		c-0.698,1.48-1.485,2.922-2.235,4.38c-8.324,16.207-16.528,32.469-24.115,49.037c-8.51,18.584-14.96,37.937-21.396,57.292
		c-0.862,2.593-1.626,5.217-2.516,7.801C169.436,442.715,168.641,443.169,167.146,442.973z"/>
	<path style="fill:#ffa713;" d="M442.955,397.65c0.772-5.41,1.438-10.84,2.342-16.229c2.905-17.315,7.501-34.161,14.213-50.407
		c2.022-4.898,4.384-9.626,7.315-14.05c0.806-1.213,1.699-2.369,2.575-3.536c0.993-1.329,2.332-1.694,3.882-1.219
		c1.218,0.372,2.561,0.608,3.575,1.299c2.712,1.855,5.522,2.621,8.778,1.838c1.434-0.344,2.89-0.051,4.242,0.659
		c1.374,0.718,1.898,1.708,1.38,3.111c-0.441,1.192-1.003,2.345-1.542,3.499c-12.285,26.257-24.574,52.51-36.866,78.763
		c-0.386,0.825-0.75,1.669-1.212,2.451c-0.542,0.915-1.404,1.138-2.323,0.646c-0.799-0.428-1.479-1.072-2.277-1.498
		c-1.097-0.582-2.569,0.064-3.543-1.002c-0.12-0.132-0.252-0.313-0.255-0.476c-0.021-1.271-0.011-2.546-0.011-3.821
		C443.138,397.671,443.047,397.659,442.955,397.65z"/>
	<path style="fill:#ffa713;" d="M450.849,426.971c-0.478,4.649-2.385,9.24-6.257,12.915c-1.781,1.688-3.982,2.525-6.367,2.835
		c-4.024,0.523-7.254-1.121-8.851-4.845c-2.968-6.917-2.143-13.543,2.374-19.532c2.297-3.042,5.687-4.4,9.478-4.703
		c3.242-0.261,5.654,1.133,7.249,3.875C450.057,420.23,450.801,423.216,450.849,426.971z"/>
	<path style="fill:#ffa713;" d="M439.813,255.116c-0.021,6.804-6.956,11.368-13.043,8.631c-1.627-0.732-3.19-1.751-4.547-2.917
		c-3.558-3.068-4.318-7.927-2.039-11.809c2.306-3.919,6.894-5.647,11.293-4.076c2.595,0.927,4.812,2.531,6.474,4.761
		C439.163,251.333,439.87,253.188,439.813,255.116z"/>
	<path style="fill:#FFFFFF;" d="M216.838,393.307c3.323-5.442,7.661-10.022,12.778-13.856c4.548-3.405,9.6-5.912,14.974-7.779
		c2.985-1.041,6.042-1.298,9.157-0.997c0.896,0.089,1.828,0.25,2.648,0.603c2.683,1.148,3.47,3.902,1.874,6.323
		c-1.123,1.705-2.68,2.976-4.325,4.129c-4.057,2.849-8.473,5.091-13.182,6.507c-6.966,2.094-14.056,3.779-21.105,5.597
		C218.831,394.038,217.904,394.298,216.838,393.307z"/>
	<path style="fill:#FFFFFF;" d="M368.862,418.333c0.329-2.394,0.773-5.446,1.674-8.437c3.537-11.768,9.71-21.965,18.164-30.83
		c3.022-3.17,6.035-6.368,9.723-8.799c2.453-1.617,5.023-2.98,8.123-2.837c2.488,0.112,3.564,0.983,4.188,3.474
		c0.406,1.627,0.376,3.251,0.112,4.887c-2.708,16.921-9.895,31.563-22.204,43.589c-3.313,3.237-7.091,5.743-11.659,6.832
		c-1.231,0.296-2.514,0.425-3.776,0.508c-1.43,0.091-2.459-0.712-3.093-1.894C369.15,423.029,368.736,421.068,368.862,418.333z"/>
	<g>
		<path style="fill:#FFFFFF;" d="M963.765,356.542c-1.123,1.739-0.908,3.582-0.813,5.396c0.11,2.061,1.056,3.384,3.261,3.711
			c1.251,0.19,2.475,0.629,3.689,1.017c18.256,5.818,29.505,18.188,33.893,36.73c0.785,3.315,0.804,6.893,0.68,10.332
			c-0.142,3.924-2.643,6.028-6.354,6.02c-3.653-0.012-5.953-2.162-6.457-6.037c-0.283-2.168-0.525-4.343-0.858-6.502
			c-2.494-16.165-17.874-31.181-38.473-29.019c-21.276,2.229-31.199,20.516-31.692,33.625
			c-0.637,16.905,11.558,34.841,33.063,36.871c1.089,0.104,2.196,0.05,3.272,0.21c2.888,0.427,5.092,2.584,5.519,5.297
			c0.491,3.108-0.923,5.922-3.848,7.106c-1.313,0.528-2.839,0.869-4.238,0.793c-25.021-1.364-40-17.896-44.972-34.158
			c-8.076-26.404,6.564-53.43,32.472-61.228c1.047-0.315,2.09-0.78,3.16-0.861c4.175-0.328,4.708-2.289,4.635-5.94
			c-0.011-0.546-0.051-1.099-0.163-1.63c-0.113-0.529-0.334-1.035-0.517-1.581c-1.88-1.557-4.146-1.171-6.284-1.181
			c-8.578-0.05-17.157-0.016-25.735-0.034c-1.641-0.003-3.284-0.056-4.92-0.172c-1.423-0.1-2.49-0.845-2.611-2.321
			c-0.266-3.241-0.655-6.513,0.408-9.611c1.95-1.409,4.021-0.989,5.979-1c8.76-0.047,17.521-0.011,26.282-0.034
			c1.639-0.002,3.28-0.082,4.911-0.236c1.184-0.113,2.214-0.818,2.296-1.996c0.242-3.449,0.328-6.911,0.377-10.371
			c0.021-1.627,0.024-3.313-1.656-5.027c-10.478-0.704-21.356,1.657-32.461,0.507c-2.261-3.725-1.438-7.671-1.291-11.534
			c1.88-1.503,3.91-1.548,5.89-1.627c3.281-0.126,6.573-0.059,9.854-0.206c14.032-0.623,28.064-1.341,42.1-1.922
			c7.112-0.299,14.229-0.39,21.349-0.559c0.728-0.017,1.542-0.106,2.16,0.178c0.761,0.352,1.816,0.968,1.948,1.63
			c0.671,3.355,1.488,6.754,0.396,10.498c-1.203,0.233-2.4,0.617-3.615,0.678c-7.289,0.374-14.579,0.662-21.87,0.997
			c-2.188,0.102-4.38,0.175-6.553,0.437c-1.892,0.23-2.818,1.016-2.865,2.739c-0.124,4.369-0.089,8.744,0.026,13.113
			c0.037,1.416,1.079,2.319,2.504,2.466c1.631,0.166,3.272,0.231,4.912,0.236c7.482,0.027,14.967,0.006,22.449,0.021
			c1.644,0.002,3.295-0.024,4.922,0.153c3.294,0.358,5.761,2.962,5.957,6.118c0.204,3.338-2.253,6.179-5.916,6.652
			c-1.621,0.208-3.278,0.188-4.918,0.194c-7.665,0.02-15.333-0.017-22.999,0.028C967.882,355.52,965.633,355.193,963.765,356.542z"
			/>
		<path style="fill:#FFFFFF;" d="M798.264,378.705c-2.224-1.196-4.267-0.814-6.236-0.822c-9.123-0.045-18.246,0.042-27.369-0.064
			c-2.528-0.028-5.123-0.284-7.563-0.918c-7.563-1.954-11.991-8.932-11.97-14.62c0.04-10.765,0.004-21.527,0.015-32.291
			c0.011-7.715,7.733-14.813,14.12-15.061c4.19-0.163,8.37-0.645,12.558-0.751c22.612-0.563,45.229-1.033,67.843-1.582
			c5.104-0.124,10.202-0.436,15.305-0.632c1.092-0.042,2.191-0.016,3.279,0.076c1.24,0.1,2.096,0.87,2.178,2.063
			c0.229,3.44,0.521,6.895-0.158,10.589c-1.021,0.25-2.028,0.681-3.054,0.716c-4.192,0.152-8.391,0.161-12.585,0.267
			c-16.413,0.405-32.824,0.822-49.236,1.244c-9.846,0.256-19.688,0.53-29.536,0.799c-0.546,0.014-1.095,0.009-1.641,0.045
			c-4.524,0.309-5.523,1.213-5.561,5.596c-0.07,8.575-0.02,17.148-0.017,25.725c0,0.366,0.003,0.731,0.033,1.095
			c0.244,2.708,1.324,3.84,4.104,4.154c1.087,0.124,2.188,0.097,3.28,0.097c8.758,0.008,17.517,0.006,26.274,0.006
			c0.729,0,1.462,0.015,2.188-0.022c3.749-0.189,4.336-0.718,4.393-4.634c0.083-5.836,0.025-11.679,0.037-17.516
			c0.001-1.275-0.06-2.562,0.066-3.828c0.349-3.497,2.649-5.816,5.917-6.075c3.658-0.29,6.437,1.656,7.228,5.233
			c0.271,1.229,0.236,2.539,0.244,3.811c0.022,5.473-0.008,10.948,0.021,16.42c0.01,1.802,0.128,3.604,0.181,5.016
			c2.001,2.043,4.112,1.568,6.063,1.576c10.583,0.045,21.166,0.014,31.747,0.03c1.981,0.004,3.967,0.104,5.831,0.157
			c1.793,2.629,1.046,5.259,1.081,7.728c0.08,5.337-0.138,5.507-5.504,5.525c-10.767,0.033-21.531,0.003-32.293,0.02
			c-1.992,0.002-3.983,0.102-5.624,0.148c-1.897,1.772-1.455,3.697-1.468,5.464c-0.047,9.488,0.021,18.976-0.061,28.462
			c-0.021,2.166-0.351,4.348-0.729,6.484c-1.318,7.418-9.062,14.617-17.595,14.581c-4.744-0.021-9.492,0.15-14.228-0.051
			c-4.395-0.183-6.662-2.961-6.299-7.169c0.259-2.998,2.09-5.169,5.107-5.504c2.709-0.298,5.463-0.182,8.196-0.271
			c2.186-0.071,4.396,0.013,6.545-0.317c3.382-0.519,5.094-2.5,5.496-5.854c0.021-0.182,0.035-0.363,0.035-0.545
			c-0.031-10.947-0.056-21.892-0.109-32.837C798.79,379.955,798.493,379.442,798.264,378.705z"/>
		<path style="fill:#FFFFFF;" d="M649.281,434.771c-4.295-2.318-8.111-3.974-11.368-7.121c13.192-22.333,18.82-46.961,22.803-72.068
			c0.469-2.958,1.747-6.007,0.576-9.259c-3.413-1.85-7.128-0.744-10.691-0.996c-3.604-0.256-7.268,0.377-11.031-0.523
			c-1.727-3.68-1.155-7.475-0.631-11.206c0.09-0.632,1.198-1.397,1.965-1.589c1.213-0.304,2.533-0.212,3.807-0.218
			c4.379-0.021,8.76,0.014,13.137-0.024c1.615-0.014,3.229-0.177,4.736-0.265c2.366-3.769,1.336-7.735,1.824-11.459
			c0.472-3.589,0.793-7.201,1.195-10.937c4.114-1.545,8.038-0.617,12.25-0.304c0.22,1.075,0.639,2.091,0.598,3.09
			c-0.221,5.284-0.577,10.565-0.842,15.847c-0.054,1.058,0.09,2.126,0.16,3.516c1.217,0.191,2.243,0.487,3.272,0.49
			c9.49,0.035,18.979,0.028,28.468,0.022c0.729,0,1.467,0.003,2.186-0.097c2.818-0.392,4.653-2.153,5.035-4.939
			c0.169-1.258,0.006-2.563,0.185-3.818c0.177-1.247,0.417-2.539,0.94-3.666c1.209-2.605,4.266-4.304,6.686-3.755
			c2.88,0.656,5.163,2.313,5.615,5.321c1.73,11.51-3.247,20.196-13.087,23.565c-2.021,0.691-4.285,0.726-6.449,0.895
			c-2.179,0.171-4.381,0.04-6.56,0.214c-1.753,0.138-2.576,1-2.811,2.799c-0.186,1.441-0.217,2.909-0.218,4.366
			c-0.016,18.977-0.012,37.957-0.003,56.934c0,1.276-0.032,2.565,0.122,3.828c0.513,4.205,2.501,6.213,6.678,6.608
			c1.99,0.188,4.01,0.09,6.018,0.109c3.469,0.031,6.941-0.096,10.396,0.126c4.325,0.274,6.598,3.137,6.152,7.345
			c-0.286,2.688-2.067,5.028-4.759,5.242c-7.819,0.618-15.717,0.999-23.475-0.237c-6.975-1.11-13.021-8.138-13.886-15.229
			c-0.311-2.523-0.318-5.1-0.32-7.648c-0.027-18.612-0.006-37.227-0.03-55.838c-0.001-2.003-0.09-4.012-0.306-5.999
			c-0.15-1.422-1.119-2.235-2.563-2.415c-0.359-0.045-0.725-0.086-1.088-0.113c-7.485-0.621-8.38,0.046-9.323,7.557
			c-1.502,11.947-3.758,23.75-6.738,35.414c-3.621,14.173-8.317,27.951-15.369,40.836
			C651.593,430.899,650.555,432.588,649.281,434.771z"/>
		<path style="fill:#FFFFFF;" d="M621.276,342.88c-1.883,1.1-2.867,1.487-3.609,2.148c-1.766,1.576-3.357,3.347-5.126,4.92
			c-2.076,1.853-4.509,2.362-7.109,1.236c-3.695-1.599-5.04-6.182-2.845-9.691c0.574-0.915,1.335-1.734,2.097-2.504
			c9.229-9.336,18.474-18.656,27.729-27.962c0.482-0.487,1.103-0.833,1.655-1.245c0.342,0.446,0.734,0.712,0.734,0.984
			c0.021,40.286,0.016,80.576-0.021,120.862c0,0.498-0.371,0.993-0.675,1.757c-3.839,0.938-7.744,0.697-11.928,0.146
			c-0.239-1.104-0.592-2.115-0.664-3.149c-0.112-1.633-0.047-3.276-0.047-4.921c-0.001-24.975,0.003-49.952-0.008-74.928
			C621.464,348.369,621.362,346.205,621.276,342.88z"/>
		<path style="fill:#FFFFFF;" d="M895.612,394.543c-0.115,0.27-0.513,1.684-1.279,2.852c-0.789,1.199-1.909,2.193-2.938,3.223
			c-20.767,20.729-41.537,41.457-62.319,62.173c-1.03,1.027-2.068,2.08-3.252,2.908c-2.646,1.854-6.335,1.479-8.522-0.724
			c-2.302-2.312-2.625-5.739-0.66-8.479c0.845-1.172,1.905-2.199,2.938-3.229c20.767-20.729,41.539-41.456,62.331-62.161
			c1.286-1.278,2.615-2.588,4.144-3.522C890.81,384.656,896.08,389.371,895.612,394.543z"/>
		<path style="fill:#FFFFFF;" d="M758.242,384.24c4.554,1.264,8.768,1.447,12.203,3.916c-3.047,16.617-13.129,38.354-21.516,46.32
			c-2.069-0.585-3.548-2.25-5.224-3.563c-1.563-1.229-3.033-2.563-4.688-3.973c2.776-4.549,5.684-8.717,7.97-13.203
			c2.387-4.687,4.321-9.619,6.194-14.545C754.982,394.461,756.445,389.604,758.242,384.24z"/>
		<path style="fill:#FFFFFF;" d="M884.079,310.081c3.71-0.484,7.291-0.602,11.168,0.116c0.257,1.255,0.699,2.449,0.713,3.648
			c0.071,6.186,0.038,12.37,0.026,18.555c-0.001,0.727-0.042,1.458-0.149,2.176c-0.511,3.367-2.962,5.38-6.457,5.343
			c-3.295-0.034-5.564-1.872-6.186-5.005c-0.036-0.18-0.087-0.361-0.086-0.541c0.05-7.626,0.1-15.255,0.181-22.884
			C883.292,311.176,883.624,310.87,884.079,310.081z"/>
		<path style="fill:#FFFFFF;" d="M883.65,348.575c3.949-0.771,7.657-0.715,11.662-0.028c0.235,1.137,0.629,2.162,0.637,3.189
			c0.062,6.357,0.086,12.713,0.004,19.071c-0.021,1.412-0.245,2.936-0.829,4.198c-1.155,2.493-3.885,3.57-6.938,3.096
			c-2.604-0.402-4.508-2.304-4.999-5.033c-0.127-0.712-0.199-1.444-0.202-2.168c-0.018-6.356-0.037-12.715,0.021-19.072
			C883.014,350.796,883.402,349.769,883.65,348.575z"/>
		<path style="fill:#FFFFFF;" d="M838.808,387.826c3.396-1.982,7.361-2.395,11.115-3.423c0.507,0.548,1.043,0.876,1.195,1.337
			c2.014,5.99,3.978,12.001,5.975,18.076c-2.915,3.61-6.145,6.709-9.595,9.625C844.101,409.064,838.721,393.221,838.808,387.826z"/>
		<path style="fill:#FFFFFF;" d="M754.324,449.89c1.932,0.825,3.516,1.646,5.641,0.336c2.529-1.556,5.266-0.396,7.345,1.449
			c1.73-0.709,3.186-1.545,4.748-1.895c3.224-0.722,5.482,1.141,5.182,4.458c-0.349,3.789-1.078,7.546-1.751,11.299
			c-0.526,2.956-1.396,4.237-2.204,3.659c-1.486-1.066-0.826-2.635-0.698-3.984c0.207-2.168,0.661-4.309,0.941-6.471
			c0.141-1.078,0.193-2.18,0.168-3.27c-0.04-1.592-0.805-2.761-1.9-2.977c-1.34-0.266-2.688-0.013-3.436,1.125
			c-0.873,1.333-1.655,2.821-2.044,4.353c-0.717,2.813-1.072,5.706-1.669,8.551c-0.18,0.857-0.553,1.721-1.032,2.447
			c-0.195,0.293-0.92,0.236-1.56,0.371c-0.689-2.313-0.191-4.425,0.126-6.575c0.373-2.512,0.563-5.052,0.716-7.59
			c0.067-1.127-0.354-2.173-1.582-2.581c-1.303-0.434-2.663-0.322-3.52,0.738c-0.888,1.103-1.707,2.409-2.058,3.757
			c-0.643,2.452-0.86,5.011-1.364,7.506c-0.286,1.405-0.723,2.793-1.251,4.127c-0.131,0.33-0.94,0.652-1.326,0.553
			c-0.386-0.103-0.928-0.768-0.893-1.137c0.311-3.247,0.697-6.484,1.137-9.723c0.268-1.979,0.589-3.958,1.028-5.906
			C753.251,451.691,753.799,450.952,754.324,449.89z"/>
		<path style="fill:#FFFFFF;" d="M676.652,453.744c-2.253-0.896-3.433,0.037-4.584,0.876c-2.123,1.545-3.471,3.719-4.624,6.019
			c-1.308,2.606-2.577,5.231-3.89,7.838c-0.438,0.87-1.111,1.516-2.162,1.094c-0.987-0.4-1.266-1.231-0.928-2.241
			c0.174-0.521,0.329-1.052,0.563-1.542c4.11-8.744,8.214-17.493,12.372-26.217c0.867-1.826,2.068-2.522,2.701-1.829
			c0.922,1.002,0.476,2.037-0.006,3.024c-1.269,2.627-2.605,5.224-3.847,7.862c-0.361,0.771-0.479,1.653-0.69,2.431
			c1.607,1.157,2.623-0.006,3.707-0.443c1.425-0.576,2.787-0.998,4.051,0.244c1.229,1.215,0.854,2.68,0.529,4.112
			c-0.076,0.354-0.22,0.694-0.36,1.03c-1.639,3.86-3.273,7.722-4.925,11.573c-0.215,0.498-0.472,0.994-0.808,1.411
			c-0.479,0.598-1.178,1.068-1.84,0.42c-0.459-0.451-0.93-1.247-0.849-1.816c0.146-1.055,0.633-2.082,1.08-3.077
			c1.115-2.496,2.322-4.949,3.428-7.451C676.002,456.089,676.24,455.036,676.652,453.744z"/>
		<path style="fill:#FFFFFF;" d="M612.827,480.241c-1.676-0.479-2.104-1.374-1.416-2.552c1.104-1.888,2.244-3.769,3.562-5.505
			c1.634-2.153,2.229-4.436,2.022-7.141c-0.271-3.632-0.21-7.289-0.249-10.933c-0.006-0.521,0.227-1.046,0.344-1.543
			c2.146-0.214,2.649-0.014,2.736,1.294c0.101,1.451,0.042,2.912,0.057,4.368c0.021,1.793,0.044,3.59,0.075,5.948
			c1.222-0.485,2.185-0.571,2.63-1.101c1.648-1.945,3.093-4.061,4.674-6.063c1.355-1.717,2.776-3.38,4.208-5.031
			c0.525-0.607,0.683-0.573,2.925-0.438c0.688,1.494-0.49,2.371-1.216,3.308c-4.124,5.342-8.299,10.642-12.475,15.938
			c-2.031,2.579-4.09,5.135-6.165,7.677C613.991,479.146,613.328,479.729,612.827,480.241z"/>
		<path style="fill:#FFFFFF;" d="M656.621,464.604c-0.792,1.484-1,2.145-1.419,2.618c-2.049,2.319-4.862,3.196-7.751,3.677
			c-3.778,0.631-6.317-1.77-6.252-5.633c0.093-5.508,4.896-12.03,10.526-14.193c1.182-0.453,2.434-0.785,3.686-0.989
			c1.771-0.288,3.244,0.391,4.259,1.868c0.936,1.359,0.865,3.789-0.323,5.123c-0.952,1.065-2.077,2.136-3.349,2.728
			c-2.293,1.07-4.746,1.799-7.146,2.633c-0.854,0.297-1.772,0.414-2.627,0.72c-1.16,0.42-1.711,1.313-1.569,2.548
			c0.139,1.244,0.962,1.901,2.1,2.215c1.889,0.519,3.619-0.164,5.296-0.844C653.323,466.553,654.494,465.768,656.621,464.604z
			 M647.063,459.093c2.35,1.339,4.354-0.059,6.261-0.732c1.438-0.512,2.68-1.737,3.844-2.821c0.7-0.652-0.276-2.188-1.398-2.394
			c-1.937-0.352-3.557,0.466-5.101,1.429C648.992,455.613,647.323,456.726,647.063,459.093z"/>
		<path style="fill:#FFFFFF;" d="M697.702,456.072c-0.49,4.488-2.944,9.582-7.82,13.293c-1.741,1.326-3.76,2.099-6.082,0.998
			c-2.188-1.039-3.548-2.64-3.435-5.036c0.094-1.951,0.363-3.99,1.066-5.789c1.646-4.185,4.771-7.165,8.563-9.51
			C694.5,447.243,698.001,450.817,697.702,456.072z M683.095,464.757c0.271,0.707,0.386,1.697,0.933,2.295
			c0.83,0.906,2.055,0.649,3.051,0.166c0.806-0.39,1.552-0.963,2.206-1.581c2.891-2.725,4.493-6.153,5.233-10.009
			c0.218-1.126,0.039-2.346-1.154-2.759c-0.756-0.266-1.911-0.236-2.557,0.18C686.616,455.757,684.244,459.731,683.095,464.757z"/>
		<path style="fill:#FFFFFF;" d="M747.082,456.796c-0.067,4.254-0.837,7.211-2.91,9.706c-1.833,2.204-4.132,3.511-7.091,3.514
			c-2.884,0.003-4.827-1.388-6.003-3.933c-2.086-4.506,0.271-12.609,4.469-15.203c2.51-1.551,5.148-1.715,7.868-0.842
			c1.68,0.537,2.729,1.866,3.176,3.505C746.97,454.933,747.026,456.41,747.082,456.796z M733.605,461.199
			c0,0.544-0.031,1.086,0.005,1.629c0.13,1.964,1.002,3.467,2.865,4.241c1.686,0.697,3.794-0.021,5.25-1.877
			c1.999-2.548,2.682-5.511,2.36-8.69c-0.194-1.912-1.001-3.479-2.931-4.206c-1.771-0.667-3.854,0.027-5.276,1.817
			C734.239,456.176,733.548,458.581,733.605,461.199z"/>
		<path style="fill:#FFFFFF;" d="M724.741,455.65c-0.771-0.853-1.309-1.595-1.988-2.16c-2.129-1.766-4.456-1.705-6.394,0.08
			c-2.479,2.286-3.696,7.429-2.521,10.652c1.104,3.021,3.9,3.958,6.572,2.137c0.741-0.506,1.314-1.242,2.012-1.821
			c0.521-0.43,1.111-0.771,2.178-1.491c0,1.236,0.206,1.988-0.038,2.537c-0.867,1.938-2.521,3.066-4.445,3.819
			c-5.249,2.063-9.613-0.776-9.893-6.407c-0.168-3.393,0.688-6.507,2.478-9.369c1.669-2.671,4.169-4.068,7.239-4.329
			c2.31-0.194,4.383,0.559,5.645,2.629C726.236,452.998,726.689,454.285,724.741,455.65z"/>
		<path style="fill:#FFFFFF;" d="M645.907,443.284c-0.626,1.469-0.989,2.479-1.475,3.43c-3.209,6.306-6.026,12.776-8.234,19.506
			c-0.28,0.855-0.631,1.691-1.013,2.513c-0.439,0.952-1.311,1.438-2.184,0.896c-0.667-0.417-1.343-1.291-1.433-2.027
			c-0.101-0.811,0.362-1.757,0.77-2.547c3.465-6.771,6.961-13.527,10.479-20.272C643.299,443.869,643.827,442.848,645.907,443.284z"
			/>
		<path style="fill:#FFFFFF;" d="M700.762,470.105c-0.602-0.49-1.175-0.729-1.348-1.142c-0.553-1.313-0.135-2.813,1.002-3.248
			c0.51-0.193,1.435,0.064,1.862,0.454c0.752,0.688,0.596,1.664,0.002,2.442C701.876,469.151,701.319,469.57,700.762,470.105z"/>
	</g>
</g>
</svg>
